# xmcd
#
# Track frame offsets: 
#        150
#        35150
#        71794
#        143704
#        163876
#        194284
#        228206
#        265444
#
# Disc length: 4327 seconds
#
# Revision: 1
# Processed by: cddbd v1.5.2PL0 Copyright (c) Steve Scherf et al.
# Submitted via: ExactAudioCopy v1.0b2
#
DISCID=7710e508
DTITLE=Ronnie Earl and Duke Robillard - The Duke Meets The Earl
DYEAR=2005
DGENRE=Blues
TTITLE0=West Side Shuffle
TTITLE1=Two Bones and A Pick
TTITLE2=My Tears
TTITLE3=Lookin For Trouble
TTITLE4=What Have I Done Wrong
TTITLE5=Zeb's Thing
TTITLE6=I Need You So Bad
TTITLE7=A Soul That's Been Abused
EXTD=
EXTT0=
EXTT1=
EXTT2=
EXTT3=
EXTT4=
EXTT5=
EXTT6=
EXTT7=
PLAYORDER=
